<?xml version="1.0" encoding="utf-8"?>
<svg viewBox="0 0 850 300" xmlns="http://www.w3.org/2000/svg" xmlns:xlink="http://www.w3.org/1999/xlink" xmlns:bx="https://boxy-svg.com">
  <defs>
    <style>
path#dot-1 {
  opacity: 0;
  animation: dot-1 15s infinite;
}

path#dot-2 {
  opacity: 0;
  animation: dot-2 15s infinite 10s;
}

path#dot-3 {
  opacity: 0;
  animation: dot-3 15s infinite 20s;
}

path#dot-4 {
  opacity: 0;
  animation: dot-4 20s infinite 25s;
}

path#dot-5 {
  opacity: 0;
  animation: dot-5 15s infinite 30s;
}

@keyframes dot-1 {
  0% {
    transform: translate(0px,0px);
    opacity: 0;
  }

  50% {
    transform: translate(0px,0px);
    opacity: 1;
  }

  80% {
    transform: translate(-30px,60px);
    opacity: 1;
  }

  100% {
    transform: translate(-30px,60px);
    opacity: 0;
  }
}

@keyframes dot-2 {
  0% {
    transform: translate(0px,0px);
    opacity: 0;
  }

  50% {
    transform: translate(0px,0px);
    opacity: 1;
  }

  80% {
    transform: translate(30px,70px);
    opacity: 1;
  }

  100% {
    transform: translate(30px,70px);
    opacity: 0;
  }
}

@keyframes dot-3 {
  0% {
    transform: translate(0px,0px);
    opacity: 0;
  }

  50% {
    transform: translate(0px,0px);
    opacity: 1;
  }

  80% {
    transform: translate(-10,80px);
    opacity: 1;
  }

  100% {
    transform: translate(-10px,80px);
    opacity: 0;
  }
}

@keyframes dot-4 {
  0% {
    transform: translate(0px,0px);
    opacity: 0;
  }

  50% {
    transform: translate(0px,0px);
    opacity: 1;
  }

  80% {
    transform: translate(10px,80px);
    opacity: 1;
  }

  100% {
    transform: translate(10px,80px);
    opacity: 0;
  }
}

@keyframes dot-5 {
  0% {
    transform: translate(0px,0px);
    opacity: 0;
  }

  50% {
    transform: translate(0px,0px);
    opacity: 1;
  }

  80% {
    transform: translate(-30px,60px);
    opacity: 1;
  }

  100% {
    transform: translate(-30px,60px);
    opacity: 0;
  }
}

</style>
    <linearGradient id="gradient-1" bx:pinned="true">
      <title>bg</title>
      <stop style="stop-color: rgb(108, 118, 129);" offset="0"/>
      <stop style="stop-color: rgb(64, 61, 67);" offset="1"/>
    </linearGradient>
    <linearGradient id="gradient-1-0" gradientUnits="userSpaceOnUse" x1="425" y1="0" x2="425" y2="300" gradientTransform="matrix(0.963511, 0.267669, -0.250023, 0.899991, 90.514702, -83.756607)" xlink:href="#gradient-1"/>
    <linearGradient id="gradient-0" bx:pinned="true">
      <title>tree</title>
      <stop offset="0" style="stop-color: rgb(148, 124, 174);"/>
      <stop offset="1" style="stop-color: rgb(82, 117, 155);"/>
    </linearGradient>
    <linearGradient id="gradient-0-0" gradientUnits="userSpaceOnUse" x1="773.475" y1="8.25" x2="773.475" y2="300" spreadMethod="reflect" gradientTransform="matrix(0.953588, 0.301115, -0.262297, 0.745613, 101.890266, -177.146744)" xlink:href="#gradient-0"/>
    <filter id="drop-shadow-filter-1" x="-500%" y="-500%" width="1000%" height="1000%">
      <title>Drop Shadow</title>
      <feFlood result="flood-0" style="flood-color: rgb(45, 44, 44);"/>
      <feGaussianBlur in="SourceAlpha" stdDeviation="8" result="gaussian-blur-0"/>
      <feOffset dx="7" dy="5" result="offset-0" in="gaussian-blur-0"/>
      <feComponentTransfer result="offsetblur" in="offset-0">
        <feFuncA id="spread-ctrl" type="linear" slope="2"/>
      </feComponentTransfer>
      <feComposite in2="offsetblur" operator="in" result="composite-0" in="flood-0"/>
      <feComponentTransfer result="component-transfer-0" in="SourceGraphic">
        <feFuncR type="linear" slope="2" intercept="-0.09"/>
        <feFuncA type="linear" slope="1.34"/>
        <feFuncB type="linear" intercept="1" slope="2"/>
      </feComponentTransfer>
      <feColorMatrix result="color-matrix-0" in="component-transfer-0" type="saturate" values="1"/>
      <feMerge result="merge-0">
        <feMergeNode in="composite-0"/>
        <feMergeNode in="color-matrix-0"/>
      </feMerge>
    </filter>
    <filter id="drop-shadow-filter-0" x="-500%" y="-500%" width="1000%" height="1000%" bx:preset="drop-shadow 1 0 0 3 0.34 rgba(95,113,228,1)">
      <feGaussianBlur in="SourceAlpha" stdDeviation="3"/>
      <feOffset dx="0" dy="0"/>
      <feComponentTransfer result="offsetblur">
        <feFuncA id="spread-ctrl" type="linear" slope="0.68"/>
      </feComponentTransfer>
      <feFlood flood-color="rgba(95,113,228,1)"/>
      <feComposite in2="offsetblur" operator="in"/>
      <feMerge>
        <feMergeNode/>
        <feMergeNode in="SourceGraphic"/>
      </feMerge>
    </filter>
    <linearGradient id="gradient-1-5" gradientUnits="userSpaceOnUse" x1="797.077" y1="259.885" x2="797.077" y2="390.109" gradientTransform="matrix(1.437726, 0, 0, 1.305784, -358.634705, -128.930573)" xlink:href="#gradient-1"/>
    <linearGradient id="gradient-1-1" gradientUnits="userSpaceOnUse" x1="544.635" y1="165.178" x2="544.635" y2="312.178" xlink:href="#gradient-1"/>
    <linearGradient id="gradient-1-6" gradientUnits="userSpaceOnUse" x1="507.635" y1="165.178" x2="507.635" y2="312.178" xlink:href="#gradient-1"/>
    <linearGradient id="gradient-1-7" gradientUnits="userSpaceOnUse" x1="532.635" y1="165.178" x2="532.635" y2="233.178" gradientTransform="matrix(0.995724, 0.092383, -0.169118, 1.613344, 30.212287, -150.517199)" xlink:href="#gradient-1"/>
    <linearGradient id="gradient-1-8" gradientUnits="userSpaceOnUse" x1="580.635" y1="165.178" x2="580.635" y2="312.178" xlink:href="#gradient-1"/>
    <linearGradient id="gradient-1-9" gradientUnits="userSpaceOnUse" x1="556.135" y1="244.178" x2="556.135" y2="312.178" gradientTransform="matrix(0.990106, 0.140322, -0.176467, 1.33953, 60.591663, -184.031982)" xlink:href="#gradient-1"/>
    <linearGradient id="gradient-1-10" gradientUnits="userSpaceOnUse" x1="604.185" y1="165.178" x2="604.185" y2="312.178" xlink:href="#gradient-1"/>
    <linearGradient id="gradient-1-11" gradientUnits="userSpaceOnUse" x1="593.035" y1="208.678" x2="593.035" y2="232.678" gradientTransform="matrix(0.999791, 0.020419, -0.141832, 2.479205, 32.380191, -334.937733)" xlink:href="#gradient-1"/>
    <filter id="drop-shadow-filter-2" x="-500%" y="-500%" width="1000%" height="1000%" bx:preset="drop-shadow 1 -2 0 7 0.11 rgba(101,118,255,1)">
      <feGaussianBlur in="SourceAlpha" stdDeviation="7"/>
      <feOffset dx="-2" dy="0"/>
      <feComponentTransfer result="offsetblur">
        <feFuncA id="spread-ctrl" type="linear" slope="0.22"/>
      </feComponentTransfer>
      <feFlood flood-color="rgba(101,118,255,1)"/>
      <feComposite in2="offsetblur" operator="in"/>
      <feMerge>
        <feMergeNode/>
        <feMergeNode in="SourceGraphic"/>
      </feMerge>
    </filter>
    <filter id="point-light-filter-0" primitiveUnits="objectBoundingBox" x="-500%" y="-500%" width="1000%" height="1000%" bx:preset="point-light 1 0.77 0.5 0.5 25 1.34 0.01 1 rgba(120,83,255,1)">
      <feSpecularLighting result="specular-lighting" lighting-color="rgba(120,83,255,1)" specularConstant="1.34" specularExponent="25">
        <fePointLight x="0.77" y="0.5" z="0.5"/>
      </feSpecularLighting>
      <feDiffuseLighting result="diffuse-lighting" lighting-color="rgba(120,83,255,1)" diffuseConstant="0.01">
        <fePointLight x="0.77" y="0.5" z="0.5"/>
      </feDiffuseLighting>
      <feMerge result="lighting">
        <feMergeNode in="diffuse-lighting"/>
        <feMergeNode in="specular-lighting"/>
      </feMerge>
      <feComposite in="SourceGraphic" in2="lighting" operator="arithmetic" k1="1" k2="1" k3="0" k4="0"/>
    </filter>
    <filter id="gaussian-blur-filter-0" color-interpolation-filters="sRGB" x="-500%" y="-500%" width="1000%" height="1000%" bx:preset="gaussian-blur 1 5">
      <feGaussianBlur stdDeviation="5 5" edgeMode="none"/>
    </filter>
    <filter id="filter-1" color-interpolation-filters="sRGB" x="-500%" y="-500%" width="1000%" height="1000%" bx:preset="gaussian-blur 1 5">
      <feGaussianBlur stdDeviation="5 5" edgeMode="none"/>
    </filter>
    <filter id="filter-2" color-interpolation-filters="sRGB" x="-500%" y="-500%" width="1000%" height="1000%" bx:preset="gaussian-blur 1 5">
      <feGaussianBlur stdDeviation="5 5" edgeMode="none"/>
    </filter>
    <filter id="filter-3" color-interpolation-filters="sRGB" x="-500%" y="-500%" width="1000%" height="1000%" bx:preset="gaussian-blur 1 5">
      <feGaussianBlur stdDeviation="5 5" edgeMode="none"/>
    </filter>
    <filter id="filter-4" color-interpolation-filters="sRGB" x="-500%" y="-500%" width="1000%" height="1000%" bx:preset="gaussian-blur 1 5">
      <feGaussianBlur stdDeviation="5 5" edgeMode="none"/>
    </filter>
    <clipPath id="clip-0">
      <rect width="850" height="300" style="fill: rgb(216, 216, 216);"/>
    </clipPath>
  </defs>
  <g style="filter: url(#point-light-filter-0); clip-path: url(#clip-0);">
    <rect width="850" height="300" style="fill: url(#gradient-1-0);"/>
    <ellipse style="filter: url(#drop-shadow-filter-0); fill: url(#gradient-1-5); opacity: 0.21;" cx="787.344" cy="295.446" rx="208.078" ry="85.022"/>
    <path d="M 833.844 0 L 833.844 12.607 L 807.86 12.607 L 807.86 0 M 794.79 6.532 L 840.845 6.532 L 840.845 34.16 L 794.79 34.16 L 794.79 6.532 Z M 813.785 22.305 L 846.305 22.305 L 846.305 96.432 L 813.785 96.432 L 813.785 22.305 Z M 770.276 22.305 L 786.41 22.305 L 786.41 58.297 L 770.276 58.297 L 770.276 22.305 Z M 809.785 91.293 L 835.606 91.293 L 835.606 137.862 L 809.785 137.862 L 809.785 91.293 Z M 784.778 89.293 L 803.301 89.293 L 803.301 110.267 L 784.778 110.267 L 784.778 89.293 Z M 746.924 39.963 L 794.79 39.963 L 794.79 79.141 L 746.924 79.141 L 746.924 39.963 Z M 737.665 58.297 L 762.282 58.297 L 762.282 105.479 L 737.665 105.479 L 737.665 58.297 Z M 718.279 143.262 L 762.576 143.262 L 762.576 159.303 L 718.279 159.303 L 718.279 143.262 Z M 707.123 91.293 L 746.924 91.293 L 746.924 137.792 L 707.123 137.792 L 707.123 91.293 Z M 737.665 126.274 L 780.972 126.274 L 780.972 153.295 L 737.665 153.295 L 737.665 126.274 Z M 756.802 115.634 L 813.785 115.634 L 813.785 133.774 L 756.802 133.774 L 756.802 115.634 Z M 799.058 105.479 L 818.497 105.479 L 818.497 174.105 L 799.058 174.105 L 799.058 105.479 Z M 803.301 168.519 L 847.52 168.519 L 847.52 183.616 L 803.301 183.616 L 803.301 168.519 Z M 850 226.842 L 818.497 226.842 L 818.497 178.547 L 850 178.547 M 850 274.861 L 828.081 274.861 L 828.081 258.75 L 850 258.75 M 807.86 218.664 L 833.844 218.664 L 833.844 265.439 L 807.86 265.439 L 807.86 218.664 Z M 803.301 246.929 L 813.785 246.929 L 813.785 274.861 L 803.301 274.861 L 803.301 246.929 Z M 682.202 91.293 L 698.848 91.293 L 698.848 112.267 L 682.202 112.267 L 682.202 91.293 Z M 687.117 86.1 L 712.505 86.1 L 712.505 146.435 L 687.117 146.435 L 687.117 86.1 Z M 666.755 108.624 L 678.486 108.624 L 678.486 143.262 L 666.755 143.262 L 666.755 108.624 Z M 673.15 137.792 L 698.848 137.792 L 698.848 174.105 L 673.15 174.105 L 673.15 137.792 Z M 663.095 150.082 L 687.117 150.082 L 687.117 193.658 L 663.095 193.658 L 663.095 150.082 Z M 780.972 269.386 L 823.43 269.386 L 823.43 279.442 L 780.972 279.442 L 780.972 269.386 Z" style="stroke: url(#gradient-0-0); fill: none; vector-effect: non-scaling-stroke; stroke-opacity: 0.8; stroke-linecap: round; stroke-miterlimit: 11; stroke-linejoin: bevel; stroke-width: 3px; filter: url(#drop-shadow-filter-1); opacity: 0.62;"/>
    <g transform="matrix(0.544412, 0, 0, 0.544412, -11.768658, -8.089131)" style="filter: url(#drop-shadow-filter-2); opacity: 0.51;">
      <polygon class="st0" points="521.135 312.178 545.135 312.178 568.135 165.178 544.135 165.178" style="stroke-miterlimit: 10; stroke-width: 5px; fill: url(#gradient-1-1);"/>
      <polygon class="st0" points="484.135 312.178 508.135 312.178 531.135 165.178 507.135 165.178" style="stroke-miterlimit: 10; stroke-width: 5px; fill: url(#gradient-1-6);"/>
      <polygon class="st1" points="515.135 233.178 539.135 233.178 550.135 165.178 526.135 165.178" style="stroke-miterlimit: 10; stroke-width: 5px; fill: url(#gradient-1-7);"/>
      <polygon class="st0" points="557.135 312.178 581.135 312.178 604.135 165.178 580.135 165.178" style="stroke-miterlimit: 10; stroke-width: 5px; fill: url(#gradient-1-8);"/>
      <polygon id="A" class="st2" points="539.135 312.178 563.135 312.178 573.135 244.178 550.135 244.178" style="stroke-miterlimit: 10; stroke-width: 5px; fill: url(#gradient-1-9);"/>
      <path class="st0" d="M 581.135 312.178 L 600.835 312.178 C 602.735 310.578 603.935 309.578 605.735 307.978 L 627.235 170.978 C 625.135 168.578 624.335 167.678 622.335 165.178 L 604.135 165.178 L 581.135 312.178 Z" style="stroke-miterlimit: 10; stroke-width: 5px; fill: url(#gradient-1-10);"/>
      <path class="st1" d="M 631.735 228.478 L 634.035 214.478 C 631.935 211.978 631.235 211.178 629.135 208.678 L 556.035 208.678 L 552.035 232.678 L 626.835 232.678 C 628.635 231.178 630.035 229.978 631.735 228.478 Z" style="stroke-miterlimit: 10; stroke-width: 5px; fill: url(#gradient-1-11);"/>
    </g>
    <g transform="matrix(1, 0, 0, 1, 334.27359, 3.109522)">
      <path stroke-width="0" d="M 352.658 169.382 C 353.511 169.164 354.765 169.12 355.664 169.382 C 356.534 169.638 357.427 170.037 357.986 170.886 C 358.697 171.966 359.274 174.532 359.079 175.805 C 358.925 176.806 358.424 177.568 357.576 178.127 C 356.498 178.838 353.929 179.415 352.658 179.22 C 351.657 179.066 350.895 178.565 350.335 177.717 C 349.624 176.639 349.046 174.07 349.241 172.799 C 349.395 171.798 350.14 171.054 350.745 170.476 C 351.296 169.948 351.905 169.576 352.658 169.382 Z" style="stroke-width: 2px; fill: rgb(115, 117, 255); stroke: rgba(255, 255, 255, 0); filter: url(#gaussian-blur-filter-0);" id="dot-1">
        <title>dot-1</title>
      </path>
      <path stroke-width="0" d="M 378.469 138.665 C 379.322 138.447 380.576 138.403 381.475 138.665 C 382.345 138.921 383.238 139.32 383.797 140.169 C 384.508 141.249 385.085 143.815 384.89 145.088 C 384.736 146.089 384.235 146.851 383.387 147.41 C 382.309 148.121 379.74 148.698 378.469 148.503 C 377.468 148.349 376.706 147.848 376.146 147 C 375.435 145.922 374.857 143.353 375.052 142.082 C 375.206 141.081 375.951 140.337 376.556 139.759 C 377.107 139.231 377.716 138.859 378.469 138.665 Z" style="stroke-width: 2px; fill: rgb(115, 117, 255); stroke: rgba(255, 255, 255, 0); filter: url(#filter-1);" id="dot-2">
        <title>dot-2</title>
      </path>
      <path stroke-width="0" d="M 445.402 138.665 C 446.255 138.447 447.509 138.403 448.408 138.665 C 449.278 138.921 450.171 139.32 450.73 140.169 C 451.441 141.249 452.018 143.815 451.823 145.088 C 451.669 146.089 451.168 146.851 450.32 147.41 C 449.242 148.121 446.673 148.698 445.402 148.503 C 444.401 148.349 443.639 147.848 443.079 147 C 442.368 145.922 441.79 143.353 441.985 142.082 C 442.139 141.081 442.884 140.337 443.489 139.759 C 444.04 139.231 444.649 138.859 445.402 138.665 Z" style="stroke-width: 2px; fill: rgb(115, 117, 255); stroke: rgba(255, 255, 255, 0); filter: url(#filter-2);" id="dot-3">
        <title>dot-3</title>
      </path>
      <path stroke-width="0" d="M 325.356 143.298 C 326.209 143.08 327.463 143.036 328.362 143.298 C 329.232 143.554 330.125 143.953 330.684 144.802 C 331.395 145.882 331.972 148.448 331.777 149.721 C 331.623 150.722 331.122 151.484 330.274 152.043 C 329.196 152.754 326.627 153.331 325.356 153.136 C 324.355 152.982 323.593 152.481 323.033 151.633 C 322.322 150.555 321.744 147.986 321.939 146.715 C 322.093 145.714 322.838 144.97 323.443 144.392 C 323.994 143.864 324.603 143.492 325.356 143.298 Z" style="stroke-width: 2px; fill: rgb(115, 117, 255); stroke: rgba(255, 255, 255, 0); filter: url(#filter-3);" id="dot-4">
        <title>dot-4</title>
      </path>
      <path stroke-width="0" d="M 411.058 148.722 C 411.911 148.504 413.165 148.46 414.064 148.722 C 414.934 148.978 415.827 149.377 416.386 150.226 C 417.097 151.306 417.674 153.872 417.479 155.145 C 417.325 156.146 416.824 156.908 415.976 157.467 C 414.898 158.178 412.329 158.755 411.058 158.56 C 410.057 158.406 409.295 157.905 408.735 157.057 C 408.024 155.979 407.446 153.41 407.641 152.139 C 407.795 151.138 408.54 150.394 409.145 149.816 C 409.696 149.288 410.305 148.916 411.058 148.722 Z" style="stroke-width: 2px; fill: rgb(115, 117, 255); stroke: rgba(255, 255, 255, 0); filter: url(#filter-4);" id="dot-5">
        <title>dot-5</title>
      </path>
    </g>
  </g>
</svg>